<svg xmlns="http://www.w3.org/2000/svg">

  <symbol id="webmoney" viewBox="0 0 25.25 25">
    <path d="M23.780,14.535 L22.416,13.081 L23.878,11.725 L25.242,13.178 L23.780,14.535 ZM20.467,8.624 L21.929,7.267 L23.293,8.818 L21.831,10.078 L20.467,8.624 ZM18.517,4.167 L20.077,2.810 L21.441,4.360 L19.979,5.717 L18.517,4.167 ZM15.983,0.969 L12.962,3.585 L11.305,1.647 L5.750,6.589 L9.259,10.368 L7.894,11.628 L11.403,15.504 L10.038,16.667 L15.009,22.190 L17.933,19.477 L20.388,22.280 C18.242,23.979 15.529,25.000 12.572,25.000 C5.629,25.000 0.000,19.404 0.000,12.500 C0.000,5.597 5.629,-0.000 12.572,-0.000 C14.867,-0.000 17.011,0.621 18.862,1.688 L17.738,2.713 L15.983,0.969 ZM19.589,16.667 L17.543,14.438 L19.882,12.403 L21.929,14.729 L19.589,16.667 ZM19.979,9.981 L17.640,12.016 L15.593,9.690 L17.933,7.655 L19.979,9.981 ZM17.835,5.523 L15.593,7.461 L13.547,5.232 L15.886,3.198 L17.835,5.523 ZM11.110,3.973 L13.839,6.977 L10.818,9.690 L7.992,6.686 L11.110,3.973 ZM18.030,17.248 L15.106,19.864 L12.377,16.957 L15.399,14.244 L18.030,17.248 ZM13.254,9.012 L15.983,12.112 L12.962,14.729 L10.233,11.822 L13.254,9.012 ZM21.734,16.957 L23.780,19.186 L21.636,21.221 L19.589,18.895 L21.734,16.957 Z"/>
  </symbol>

  <symbol id="ymoney" viewBox="0 0 20 24">
    <path d="M12.925,0.289 L1.256,7.283 C1.256,7.283 0.052,8.138 0.016,9.303 C-0.021,10.469 0.016,22.125 0.016,22.125 C0.016,22.125 0.563,23.971 2.131,23.990 C3.699,24.010 18.250,23.990 18.250,23.990 C18.250,23.990 20.000,23.990 20.000,22.203 C20.000,20.416 20.000,9.692 20.000,9.692 C20.000,9.692 19.727,8.215 18.541,8.215 C17.356,8.215 17.010,8.215 17.010,8.215 L17.010,16.064 C17.010,16.064 17.210,17.909 14.895,18.628 C12.579,19.347 3.881,21.892 3.881,21.892 C3.881,21.892 2.860,22.164 2.933,21.348 C3.006,20.532 3.189,20.707 4.757,20.027 C6.325,19.347 13.436,16.375 13.436,16.375 C13.436,16.375 15.113,15.675 15.113,13.422 C15.113,11.168 15.113,11.032 15.113,11.168 C15.113,11.304 15.113,1.610 15.113,1.610 C15.113,1.610 15.460,-0.819 12.925,0.289 ZM11.102,6.972 C11.102,6.972 11.868,6.836 11.904,8.060 C11.941,9.284 10.519,10.022 10.300,10.080 C10.081,10.139 9.151,10.391 9.206,9.070 C9.260,7.749 10.519,6.836 11.102,6.972 Z"/>
  </symbol>

  <symbol id="adv1" viewBox="0 0 65.031 65">
    <path d="M25.732,6.886 C25.732,3.082 28.828,0.000 32.647,0.000 C36.467,0.000 39.565,3.082 39.565,6.886 C39.565,10.692 36.467,13.773 32.647,13.773 C28.828,13.773 25.732,10.692 25.732,6.886 ZM40.256,17.019 C39.679,16.574 39.030,16.118 38.392,15.769 C37.939,15.520 37.459,15.321 36.969,15.153 C35.855,14.771 34.680,14.557 33.504,14.477 L35.287,33.140 L32.711,36.148 L29.766,33.140 L32.004,14.451 C30.739,14.493 29.468,14.691 28.271,15.106 C27.779,15.276 27.296,15.482 26.844,15.738 C26.019,16.202 25.219,16.815 24.510,17.439 C21.065,20.480 19.199,25.759 18.804,33.577 C18.735,34.918 19.772,36.060 21.118,36.127 C21.160,36.130 21.202,36.130 21.243,36.130 C22.533,36.130 23.614,35.122 23.678,33.823 C23.946,28.526 25.002,24.578 26.733,22.227 C26.608,24.691 26.390,29.160 26.192,33.726 C26.178,33.809 26.157,33.888 26.150,33.972 L24.198,61.433 C24.075,63.169 25.388,64.675 27.130,64.798 C27.206,64.803 27.282,64.806 27.356,64.806 C29.003,64.806 30.392,63.537 30.510,61.877 L32.046,40.257 C32.288,40.190 32.526,40.130 32.730,40.130 C32.974,40.130 33.206,40.173 33.441,40.203 L34.862,62.054 C34.969,63.720 36.362,65.000 38.016,65.000 C38.083,65.000 38.154,64.998 38.224,64.994 C39.966,64.881 41.289,63.382 41.176,61.645 L39.489,35.698 C39.480,35.553 39.446,35.416 39.420,35.280 C39.279,31.307 38.822,25.426 38.559,22.230 C40.328,24.585 41.322,28.493 41.430,33.750 C41.458,35.075 42.546,36.130 43.921,36.130 C45.268,36.102 46.339,34.992 46.310,33.650 C46.145,25.584 44.107,19.988 40.256,17.019 ZM64.456,31.508 L60.021,28.330 C59.298,27.818 58.710,28.129 58.710,29.029 L58.710,30.463 L49.661,30.463 C49.759,31.186 49.855,31.907 49.946,32.618 C50.029,33.260 50.128,33.901 50.216,34.547 L58.710,34.547 L58.710,35.862 C58.710,36.761 59.298,37.073 60.021,36.561 L64.456,33.381 C65.180,32.868 65.180,32.024 64.456,31.508 ZM0.552,33.436 L5.062,36.616 C5.797,37.129 6.395,36.816 6.395,35.917 L6.395,34.603 L15.035,34.603 C15.123,33.956 15.225,33.314 15.310,32.673 C15.403,31.962 15.497,31.241 15.599,30.519 L6.395,30.519 L6.395,29.085 C6.395,28.184 5.797,27.873 5.062,28.385 L0.552,31.564 C-0.186,32.079 -0.186,32.923 0.552,33.436 Z"/>
  </symbol>

  <symbol id="adv2" viewBox="0 0 53 65">
    <path d="M26.500,65.003 C11.887,65.003 -0.001,59.983 -0.001,53.815 C-0.001,48.774 7.941,44.502 18.818,43.109 L18.818,44.078 C9.165,45.438 2.184,49.287 2.184,53.815 C2.184,59.475 13.092,64.081 26.500,64.081 C39.908,64.081 50.816,59.475 50.816,53.815 C50.816,49.303 43.883,45.466 34.282,44.093 L34.282,43.120 C45.109,44.528 53.001,48.789 53.001,53.815 C53.001,59.983 41.112,65.003 26.500,65.003 ZM47.199,53.815 C47.199,58.633 37.913,62.553 26.500,62.553 C15.087,62.553 5.800,58.633 5.800,53.815 C5.800,50.141 11.198,46.991 18.818,45.701 L18.818,46.704 C12.433,47.939 7.984,50.662 7.984,53.815 C7.984,58.125 16.291,61.631 26.500,61.631 C36.708,61.631 45.015,58.125 45.015,53.815 C45.015,50.677 40.613,47.967 34.282,46.724 L34.282,45.719 C41.850,47.020 47.199,50.158 47.199,53.815 ZM26.500,58.827 C33.048,58.827 38.376,56.579 38.376,53.815 C38.376,52.589 37.323,51.464 35.585,50.592 C35.261,50.326 34.846,50.138 34.282,50.021 L34.282,48.874 C38.063,49.939 40.559,51.756 40.559,53.815 C40.559,57.087 34.252,59.751 26.500,59.751 C18.747,59.751 12.440,57.088 12.440,53.815 C12.440,51.737 14.981,49.907 18.818,48.846 L18.818,49.998 C18.757,50.019 18.702,50.044 18.642,50.066 C18.254,50.161 17.937,50.295 17.678,50.470 C15.786,51.359 14.624,52.529 14.624,53.815 C14.624,56.579 19.952,58.827 26.500,58.827 ZM32.583,31.577 C32.410,31.577 32.236,31.553 32.064,31.513 C32.026,31.595 31.989,31.677 31.947,31.756 L31.946,53.189 C31.946,54.653 30.742,55.840 29.256,55.840 C27.769,55.840 26.565,54.653 26.565,53.189 L26.565,34.763 C26.545,34.764 26.524,34.766 26.502,34.766 C26.395,34.766 26.289,34.759 26.182,34.753 L26.184,53.189 C26.184,54.653 24.979,55.840 23.493,55.840 C22.007,55.840 20.802,54.653 20.802,53.189 L20.801,31.708 C20.801,31.651 20.806,31.595 20.810,31.539 C20.679,31.563 20.547,31.577 20.415,31.577 C19.666,31.577 18.933,31.215 18.499,30.549 C17.217,28.586 15.045,25.010 14.888,23.105 C14.623,19.908 20.180,14.422 22.596,12.961 C22.692,12.902 22.795,12.861 22.895,12.818 C23.560,12.378 24.309,12.057 25.072,11.876 C25.076,11.875 25.081,11.875 25.086,11.875 L26.502,13.339 L27.963,11.890 C28.724,12.074 29.470,12.397 30.131,12.832 C30.222,12.871 30.315,12.908 30.404,12.961 C32.819,14.422 38.376,19.908 38.111,23.105 C37.953,25.010 35.781,28.586 34.500,30.549 C34.065,31.215 33.332,31.577 32.583,31.577 ZM20.500,21.157 C19.974,21.858 19.591,22.473 19.455,22.863 C19.573,23.276 19.965,24.094 20.500,25.072 L20.500,21.157 ZM26.516,13.553 L26.489,13.553 L25.075,22.869 L26.489,24.776 L26.516,24.776 L27.930,22.869 L26.516,13.553 ZM32.505,21.166 L32.505,25.057 C33.029,24.096 33.415,23.285 33.541,22.857 C33.404,22.466 33.024,21.858 32.505,21.166 ZM26.502,11.555 C23.264,11.555 20.638,8.968 20.638,5.776 C20.638,2.586 23.264,-0.002 26.502,-0.002 C29.741,-0.002 32.366,2.586 32.366,5.776 C32.366,8.968 29.741,11.555 26.502,11.555 Z"/>
  </symbol>

  <symbol id="adv3" viewBox="0 0 41 65">
    <path d="M27.916,53.838 C27.928,53.955 27.934,54.072 27.934,54.193 L27.933,61.448 C27.933,63.410 26.340,65.000 24.375,65.000 C22.411,64.999 20.817,63.408 20.817,61.447 L20.818,54.192 C20.818,54.072 20.825,53.955 20.837,53.839 L20.293,53.839 C20.305,53.955 20.311,54.072 20.311,54.191 L20.313,61.446 C20.314,63.408 18.722,64.999 16.756,65.000 L16.756,65.000 C14.791,65.000 13.198,63.410 13.198,61.449 L13.196,54.193 C13.196,54.073 13.202,53.955 13.213,53.838 L-0.000,53.838 L-0.000,22.487 L5.494,22.487 C5.582,21.901 5.893,21.348 6.412,20.972 C7.442,20.227 8.880,20.457 9.625,21.483 L9.899,21.862 L12.481,17.553 C12.745,17.111 13.137,16.797 13.580,16.615 L13.580,16.576 L16.575,15.239 L18.015,14.027 L20.481,16.347 L23.003,14.047 L24.276,15.197 L27.382,16.576 L27.382,16.602 C27.842,16.781 28.249,17.098 28.521,17.553 L31.103,21.862 L31.377,21.483 C32.123,20.456 33.561,20.227 34.590,20.972 C35.109,21.348 35.414,21.900 35.500,22.487 L41.001,22.487 L41.001,53.838 L27.916,53.838 ZM20.498,16.826 L20.464,16.826 L19.615,22.487 L21.347,22.487 L20.498,16.826 ZM37.781,25.703 L3.220,25.703 L3.220,50.623 L37.780,50.623 L37.781,50.623 L37.781,25.703 ZM30.565,47.907 L26.132,47.907 C25.952,47.907 25.805,47.762 25.805,47.581 L25.805,35.845 L28.719,32.672 L29.524,33.345 C29.737,33.523 30.008,33.621 30.287,33.620 C30.479,33.620 30.669,33.573 30.838,33.485 C30.857,33.476 30.874,33.463 30.892,33.452 L30.892,47.581 C30.892,47.762 30.746,47.907 30.565,47.907 ZM30.540,31.596 C30.450,31.644 30.343,31.631 30.266,31.568 L28.693,30.254 L21.971,37.575 C21.791,37.771 21.512,37.838 21.263,37.746 L13.962,35.065 L9.790,39.399 C9.663,39.533 9.492,39.600 9.319,39.600 C9.156,39.600 8.992,39.540 8.866,39.418 C8.606,39.168 8.598,38.755 8.847,38.495 L13.316,33.853 C13.497,33.666 13.769,33.604 14.013,33.692 L21.304,36.371 L27.689,29.416 L26.113,28.101 C26.062,28.059 26.030,27.998 26.025,27.934 C26.022,27.902 26.025,27.869 26.035,27.838 C26.065,27.743 26.150,27.675 26.249,27.666 L30.062,27.325 C30.198,27.314 30.318,27.413 30.330,27.550 L30.671,31.356 C30.680,31.455 30.628,31.550 30.540,31.596 ZM5.464,27.870 L11.110,27.870 L11.110,28.865 L5.464,28.865 L5.464,27.870 ZM8.665,30.856 L5.464,30.856 L5.464,29.860 L8.665,29.860 L8.665,30.856 ZM14.466,37.391 L15.488,37.765 L15.488,47.581 C15.488,47.762 15.342,47.908 15.162,47.908 L10.729,47.908 C10.549,47.908 10.402,47.762 10.402,47.581 L10.402,41.183 L14.052,37.391 L14.466,37.391 ZM18.649,40.364 L23.081,40.364 C23.262,40.364 23.409,40.511 23.409,40.691 L23.409,47.581 C23.409,47.762 23.262,47.907 23.081,47.907 L18.649,47.907 C18.469,47.907 18.322,47.762 18.322,47.581 L18.322,40.691 C18.322,40.511 18.469,40.364 18.649,40.364 ZM20.532,14.027 C16.652,14.027 13.507,10.887 13.507,7.013 C13.507,3.140 16.652,0.000 20.532,0.000 C24.412,0.000 27.557,3.140 27.557,7.013 C27.557,10.887 24.412,14.027 20.532,14.027 Z"/>
  </symbol>

  <symbol id="adv4" viewBox="0 0 59 65">
    <path d="M56.674,32.676 C56.258,33.445 55.468,33.881 54.654,33.881 C54.283,33.881 53.907,33.791 53.558,33.600 C53.377,33.501 53.221,33.375 53.078,33.238 L53.078,54.899 C53.078,56.404 51.862,57.624 50.362,57.624 C48.863,57.624 47.647,56.404 47.647,54.899 L47.648,35.961 C47.626,35.961 47.605,35.963 47.584,35.963 C47.476,35.963 47.369,35.955 47.261,35.950 L47.262,54.899 C47.262,56.405 46.047,57.624 44.547,57.624 C43.047,57.624 41.832,56.405 41.831,54.899 L41.829,32.820 C41.829,32.701 41.850,32.588 41.865,32.472 C41.650,31.935 41.527,31.351 41.527,30.724 L41.527,18.573 C40.860,18.538 40.191,18.421 39.525,18.213 C38.945,18.031 38.394,17.772 37.857,17.483 L37.857,30.026 C37.856,31.875 36.358,33.378 34.516,33.378 L5.520,33.378 C3.679,33.378 2.180,31.874 2.180,30.026 L2.180,3.353 C2.180,1.505 3.678,0.001 5.520,0.001 L34.516,0.001 C36.358,0.001 37.857,1.505 37.857,3.353 L37.857,11.764 C38.801,12.706 39.839,13.480 40.903,13.813 C41.856,14.112 42.728,14.010 43.645,13.494 C43.793,13.409 43.949,13.347 44.106,13.300 C44.735,12.902 45.431,12.607 46.139,12.438 C46.144,12.436 46.149,12.436 46.154,12.435 L47.583,13.940 L49.058,12.451 C49.797,12.634 50.524,12.948 51.172,13.375 C51.252,13.412 51.333,13.443 51.409,13.490 C54.315,15.278 63.157,20.721 56.674,32.676 ZM35.630,15.952 C34.068,14.631 32.763,13.024 31.791,11.604 L31.249,10.781 C30.437,9.503 29.935,8.501 29.800,8.222 C29.247,7.078 29.722,5.697 30.863,5.142 C31.313,4.922 31.798,4.869 32.255,4.947 L32.885,5.158 C33.324,5.377 33.703,5.730 33.933,6.208 C34.250,6.858 34.848,7.920 35.630,9.052 L35.630,3.353 C35.630,2.737 35.130,2.236 34.516,2.236 L5.520,2.236 C4.906,2.236 4.407,2.737 4.407,3.353 L4.407,30.026 C4.407,30.642 4.906,31.144 5.520,31.144 L34.516,31.144 C35.130,31.144 35.630,30.642 35.630,30.026 L35.630,15.952 ZM47.598,14.161 L47.570,14.161 L46.143,23.735 L47.570,25.695 L47.598,25.695 L49.026,23.735 L47.598,14.161 ZM53.641,21.716 L53.641,28.310 C54.715,25.491 54.519,23.382 53.641,21.716 ZM28.725,19.240 L28.289,20.425 C28.185,20.707 27.978,20.932 27.706,21.058 C27.433,21.184 27.127,21.197 26.845,21.092 L25.912,20.746 C25.526,21.313 25.056,21.826 24.510,22.269 L24.926,23.174 C25.185,23.738 24.939,24.410 24.376,24.670 L23.233,25.198 C22.670,25.458 22.001,25.210 21.742,24.646 L21.327,23.741 C20.638,23.870 19.944,23.894 19.262,23.820 L18.919,24.756 C18.814,25.039 18.607,25.264 18.334,25.390 C18.062,25.515 17.756,25.528 17.475,25.424 L16.296,24.986 C16.014,24.881 15.789,24.673 15.664,24.399 C15.538,24.125 15.526,23.820 15.631,23.536 L15.975,22.600 C15.410,22.214 14.898,21.742 14.457,21.195 L13.555,21.611 C12.993,21.871 12.324,21.624 12.064,21.059 L11.538,19.911 C11.279,19.347 11.525,18.676 12.088,18.416 L12.990,17.999 C12.862,17.307 12.838,16.611 12.912,15.928 L11.978,15.581 C11.697,15.478 11.473,15.270 11.347,14.996 C11.222,14.723 11.210,14.417 11.313,14.134 L11.749,12.949 C11.958,12.383 12.632,12.073 13.194,12.283 L14.126,12.627 C14.512,12.062 14.982,11.548 15.528,11.104 L15.112,10.200 C14.853,9.635 15.100,8.963 15.663,8.703 L16.805,8.175 C17.368,7.915 18.037,8.164 18.296,8.728 L18.712,9.632 C19.401,9.505 20.096,9.480 20.776,9.554 L21.120,8.617 C21.328,8.053 22.001,7.742 22.564,7.950 L23.744,8.387 C24.325,8.603 24.623,9.253 24.409,9.837 L24.065,10.772 C24.629,11.160 25.141,11.631 25.582,12.179 L26.484,11.762 C27.047,11.502 27.716,11.750 27.975,12.315 L28.500,13.461 C28.760,14.026 28.513,14.698 27.950,14.957 L27.049,15.374 C27.176,16.067 27.201,16.763 27.128,17.446 L28.062,17.792 C28.642,18.008 28.940,18.657 28.725,19.240 ZM24.056,14.820 C23.333,13.245 21.747,12.226 20.017,12.226 C19.374,12.226 18.749,12.363 18.160,12.636 C15.935,13.665 14.958,16.319 15.983,18.553 C16.707,20.129 18.291,21.148 20.022,21.148 C20.666,21.148 21.290,21.010 21.879,20.738 C24.105,19.709 25.081,17.055 24.056,14.820 ZM47.583,12.107 C44.315,12.107 41.666,9.448 41.666,6.168 C41.666,2.887 44.315,0.229 47.583,0.229 C50.852,0.229 53.501,2.887 53.501,6.168 C53.501,9.448 50.852,12.107 47.583,12.107 ZM6.215,41.400 C6.215,38.802 8.313,36.697 10.901,36.697 C13.489,36.697 15.587,38.802 15.587,41.400 C15.587,43.997 13.489,46.102 10.901,46.102 C8.313,46.102 6.215,43.997 6.215,41.400 ZM7.781,47.247 C7.858,47.199 7.940,47.165 8.021,47.130 C8.552,46.773 9.149,46.510 9.759,46.363 C9.762,46.362 9.766,46.362 9.770,46.362 L10.902,47.554 L12.069,46.375 C12.666,46.522 13.253,46.779 13.775,47.129 C13.857,47.163 13.940,47.199 14.019,47.247 C15.804,48.346 20.414,51.191 19.992,56.833 L16.325,56.833 C16.464,55.549 16.206,54.494 15.698,53.603 L15.698,56.833 L10.933,56.833 L12.042,55.310 L10.913,47.729 L10.891,47.729 L9.761,55.310 L10.870,56.833 L6.106,56.833 L6.106,53.594 C5.594,54.486 5.333,55.543 5.473,56.833 L1.806,56.833 C1.385,51.190 5.996,48.346 7.781,47.247 ZM24.457,41.400 C24.457,38.802 26.555,36.697 29.143,36.697 C31.730,36.697 33.828,38.802 33.828,41.400 C33.828,43.997 31.730,46.102 29.143,46.102 C26.555,46.102 24.457,43.997 24.457,41.400 ZM38.233,56.833 L34.566,56.833 C34.705,55.549 34.447,54.494 33.938,53.603 L33.938,56.833 L29.174,56.833 L30.284,55.310 L29.153,47.729 L29.131,47.729 L28.001,55.310 L29.110,56.833 L24.347,56.833 L24.347,53.594 C23.835,54.486 23.574,55.543 23.714,56.833 L20.047,56.833 C19.626,51.190 24.236,48.346 26.021,47.247 C26.098,47.199 26.180,47.165 26.261,47.130 C26.792,46.773 27.390,46.510 28.000,46.363 C28.003,46.362 28.007,46.362 28.011,46.362 L29.143,47.554 L30.310,46.375 C30.907,46.522 31.494,46.779 32.015,47.129 C32.097,47.163 32.181,47.199 32.259,47.247 C34.044,48.346 38.654,51.191 38.233,56.833 ZM53.577,64.998 L0.002,64.998 L0.002,58.296 L53.577,58.296 L53.577,64.998 Z"/>
  </symbol>

  <symbol id="partners1" viewBox="0 0 49 70">
    <path d="M46.342,41.436 C45.865,42.312 44.963,42.809 44.031,42.809 C43.607,42.809 43.177,42.706 42.778,42.489 C42.570,42.375 42.393,42.232 42.230,42.077 L42.252,66.782 C42.253,68.499 40.864,69.893 39.149,69.894 C39.148,69.894 39.148,69.894 39.147,69.894 C37.433,69.894 36.042,68.504 36.041,66.787 L36.021,45.182 C35.995,45.182 35.970,45.184 35.945,45.184 C35.822,45.184 35.701,45.175 35.579,45.169 L35.600,66.782 C35.602,68.499 34.213,69.893 32.498,69.894 C32.497,69.894 32.496,69.894 32.495,69.894 C30.782,69.894 29.391,68.504 29.389,66.789 L29.364,41.602 C29.364,41.464 29.387,41.334 29.404,41.202 C29.158,40.589 29.017,39.923 29.017,39.207 L29.017,25.345 C28.254,25.305 27.489,25.172 26.728,24.934 C20.318,22.926 16.069,14.494 15.605,13.538 C14.972,12.231 15.515,10.658 16.821,10.023 C18.127,9.389 19.699,9.933 20.333,11.240 C21.324,13.269 24.691,18.789 28.304,19.916 C29.395,20.257 30.391,20.141 31.440,19.552 C31.610,19.456 31.787,19.385 31.967,19.330 C32.686,18.877 33.482,18.541 34.293,18.346 C34.298,18.345 34.304,18.345 34.310,18.343 L35.944,20.061 L37.630,18.362 C38.475,18.570 39.306,18.928 40.048,19.415 C40.139,19.458 40.231,19.493 40.320,19.547 C43.642,21.587 53.754,27.795 46.342,41.436 ZM35.960,20.312 L35.928,20.312 L34.296,31.234 L35.928,33.470 L35.960,33.470 L37.591,31.234 L35.960,20.312 ZM42.872,28.931 L42.872,36.452 C44.099,33.237 43.875,30.831 42.872,28.931 ZM35.944,17.969 C32.205,17.969 29.175,14.936 29.175,11.194 C29.175,7.452 32.205,4.419 35.944,4.419 C39.682,4.419 42.712,7.452 42.712,11.194 C42.712,14.936 39.682,17.969 35.944,17.969 ZM11.766,4.415 L11.796,34.425 L6.402,35.325 L17.566,42.366 L6.238,52.036 L8.052,54.066 C8.457,54.003 8.869,53.960 9.292,53.960 C13.717,53.960 17.305,57.551 17.305,61.980 C17.305,66.410 13.717,70.001 9.292,70.001 C4.865,70.001 1.278,66.410 1.278,61.980 C1.278,58.870 3.051,56.179 5.636,54.849 L2.922,51.810 L13.657,42.648 L0.001,34.035 L9.471,32.456 L9.444,4.485 L4.861,9.071 L3.219,7.427 L10.640,-0.001 L18.060,7.428 L16.418,9.071 L11.766,4.415 ZM6.197,65.365 L6.287,65.402 C6.925,65.695 7.740,65.861 8.711,65.895 L8.705,67.203 L9.837,67.207 L9.842,65.845 C10.630,65.741 11.249,65.498 11.687,65.114 C12.156,64.700 12.396,64.162 12.397,63.520 C12.399,63.001 12.236,62.557 11.911,62.193 C11.594,61.836 11.043,61.507 10.227,61.191 L9.858,61.050 L9.865,59.067 C10.432,59.135 11.009,59.280 11.581,59.507 L11.724,59.567 L12.294,58.150 L12.154,58.089 C11.434,57.791 10.668,57.619 9.871,57.572 L9.874,56.542 L8.742,56.539 L8.738,57.593 C8.016,57.685 7.427,57.914 6.989,58.274 C6.509,58.668 6.266,59.181 6.264,59.799 C6.262,60.369 6.430,60.851 6.764,61.241 C7.089,61.620 7.607,61.950 8.306,62.222 L8.724,62.379 L8.716,64.424 C8.394,64.406 8.029,64.348 7.635,64.249 C7.173,64.132 6.768,63.988 6.425,63.818 L6.203,63.709 L6.197,65.365 ZM8.027,59.792 C8.027,59.607 8.094,59.463 8.236,59.338 C8.351,59.234 8.520,59.159 8.734,59.107 L8.729,60.613 C8.481,60.498 8.305,60.383 8.201,60.274 C8.083,60.146 8.026,59.989 8.027,59.792 ZM10.429,63.128 C10.566,63.256 10.630,63.412 10.630,63.605 C10.629,63.753 10.627,64.180 9.846,64.355 L9.852,62.788 C10.116,62.904 10.311,63.015 10.429,63.128 Z"/>
  </symbol>
  
  <symbol id="partners2" viewBox="0 0 89 60">
    <path d="M78.760,20.789 C75.965,20.789 73.701,18.517 73.701,15.715 C73.701,12.914 75.965,10.645 78.760,10.645 C81.553,10.645 83.818,12.914 83.818,15.715 C83.818,18.517 81.553,20.789 78.760,20.789 ZM75.376,22.020 C75.474,21.960 75.574,21.917 75.674,21.876 C76.241,21.499 76.877,21.224 77.524,21.068 C77.529,21.067 77.532,21.067 77.536,21.067 L78.759,22.352 L80.019,21.079 C80.665,21.241 81.297,21.518 81.863,21.894 C81.950,21.931 82.039,21.969 82.123,22.021 C86.051,24.435 88.306,26.347 89.000,37.521 C89.068,38.604 88.245,39.540 87.161,39.609 C87.121,39.612 87.080,39.613 87.039,39.613 C86.010,39.613 85.145,38.811 85.080,37.765 C84.849,34.036 84.474,31.603 83.936,29.921 L83.936,36.684 C83.936,37.386 83.760,38.024 83.455,38.590 L83.454,57.326 C83.454,58.613 82.415,59.654 81.133,59.654 C79.852,59.654 78.813,58.613 78.813,57.326 L78.813,41.156 C78.795,41.156 78.777,41.158 78.759,41.158 C78.667,41.158 78.574,41.151 78.482,41.147 L78.483,57.326 C78.483,58.613 77.446,59.654 76.163,59.654 C74.881,59.654 73.842,58.613 73.842,57.327 L73.840,38.473 C73.840,38.367 73.849,38.263 73.863,38.161 C73.684,37.707 73.580,37.213 73.580,36.684 L73.580,29.861 C73.033,31.547 72.653,33.992 72.418,37.764 C72.353,38.810 71.488,39.612 70.460,39.612 C70.420,39.612 70.378,39.611 70.335,39.609 C69.253,39.540 68.429,38.604 68.497,37.520 C69.193,26.346 71.449,24.435 75.376,22.020 ZM78.746,32.389 L78.771,32.389 L79.990,30.716 L78.771,22.541 L78.746,22.541 L77.528,30.716 L78.746,32.389 ZM60.993,38.875 C60.845,38.875 60.696,38.852 60.548,38.818 C60.516,38.889 60.484,38.960 60.447,39.029 L60.447,57.692 C60.447,58.967 59.416,60.000 58.145,60.000 C56.872,60.000 55.841,58.967 55.841,57.692 L55.842,41.648 C55.823,41.648 55.806,41.651 55.789,41.651 C55.697,41.651 55.606,41.642 55.514,41.638 L55.515,57.692 C55.515,58.967 54.484,60.000 53.212,60.000 C51.941,60.000 50.909,58.967 50.909,57.692 L50.908,38.986 C50.908,38.937 50.912,38.888 50.915,38.840 C50.803,38.859 50.690,38.873 50.578,38.873 C49.937,38.873 49.310,38.558 48.938,37.977 C47.841,36.268 45.982,33.154 45.847,31.495 C45.621,28.712 50.376,23.933 52.444,22.662 C52.528,22.611 52.615,22.575 52.701,22.536 C53.270,22.154 53.911,21.874 54.563,21.716 C54.568,21.716 54.572,21.716 54.576,21.716 L55.789,22.991 L57.039,21.729 C57.690,21.889 58.328,22.171 58.893,22.549 C58.972,22.583 59.051,22.615 59.127,22.661 C61.194,23.933 65.950,28.710 65.724,31.495 C65.589,33.154 63.729,36.268 62.633,37.978 C62.261,38.558 61.634,38.875 60.993,38.875 ZM50.651,29.798 C50.200,30.408 49.873,30.943 49.757,31.283 C49.857,31.643 50.193,32.355 50.651,33.207 L50.651,29.798 ZM55.801,23.177 L55.777,23.177 L54.566,31.289 L55.777,32.949 L55.801,32.949 L57.011,31.289 L55.801,23.177 ZM60.926,29.806 L60.926,33.195 C61.374,32.357 61.705,31.650 61.812,31.279 C61.695,30.938 61.370,30.409 60.926,29.806 ZM60.808,16.404 C60.808,19.184 58.560,21.436 55.789,21.436 C53.016,21.436 50.769,19.184 50.769,16.404 C50.769,13.627 53.016,11.372 55.789,11.372 C58.560,11.372 60.808,13.626 60.808,16.404 ZM47.509,-0.000 L64.067,-0.000 L55.789,8.300 L47.509,-0.000 ZM41.929,39.609 C41.889,39.612 41.847,39.613 41.807,39.613 C40.778,39.613 39.914,38.811 39.848,37.765 C39.617,34.036 39.243,31.603 38.704,29.921 L38.704,36.684 C38.704,37.386 38.527,38.024 38.223,38.590 L38.222,57.326 C38.222,58.613 37.184,59.654 35.901,59.654 C34.620,59.654 33.581,58.613 33.581,57.326 L33.581,41.156 C33.563,41.156 33.546,41.158 33.527,41.158 C33.435,41.158 33.343,41.151 33.249,41.147 L33.252,57.326 C33.252,58.613 32.214,59.654 30.931,59.654 C29.650,59.654 28.611,58.613 28.611,57.327 L28.608,38.473 C28.608,38.367 28.617,38.263 28.632,38.161 C28.453,37.707 28.349,37.213 28.349,36.684 L28.349,29.861 C27.803,31.547 27.422,33.992 27.187,37.764 C27.122,38.810 26.258,39.612 25.229,39.612 C25.189,39.612 25.147,39.611 25.104,39.609 C24.022,39.540 23.198,38.604 23.266,37.520 C23.962,26.346 26.218,24.435 30.146,22.020 C30.243,21.960 30.344,21.917 30.443,21.876 C31.010,21.499 31.646,21.224 32.294,21.068 C32.298,21.067 32.302,21.067 32.306,21.067 L33.528,22.352 L34.788,21.079 C35.434,21.241 36.066,21.518 36.632,21.894 C36.719,21.931 36.807,21.969 36.892,22.021 C40.819,24.435 43.074,26.347 43.769,37.521 C43.835,38.604 43.012,39.540 41.929,39.609 ZM33.539,22.541 L33.515,22.541 L32.296,30.716 L33.515,32.389 L33.539,32.389 L34.759,30.716 L33.539,22.541 ZM33.528,20.789 C30.733,20.789 28.469,18.517 28.470,15.715 C28.470,12.914 30.733,10.645 33.528,10.645 C36.320,10.645 38.586,12.914 38.586,15.715 C38.586,18.517 36.321,20.789 33.528,20.789 ZM18.664,39.609 C18.625,39.612 18.583,39.613 18.542,39.613 C17.514,39.613 16.648,38.811 16.584,37.765 C16.352,34.036 15.978,31.603 15.440,29.921 L15.440,36.684 C15.440,37.386 15.262,38.024 14.958,38.590 L14.957,57.326 C14.957,58.613 13.918,59.654 12.636,59.654 C11.354,59.654 10.316,58.613 10.316,57.326 L10.316,41.156 C10.297,41.156 10.279,41.158 10.262,41.158 C10.170,41.158 10.076,41.151 9.984,41.147 L9.985,57.326 C9.985,58.613 8.947,59.654 7.666,59.654 C6.383,59.654 5.345,58.613 5.345,57.327 L5.342,38.473 C5.342,38.367 5.352,38.263 5.366,38.161 C5.187,37.707 5.083,37.213 5.083,36.684 L5.083,29.861 C4.537,31.547 4.155,33.992 3.920,37.764 C3.855,38.810 2.991,39.612 1.962,39.612 C1.922,39.612 1.881,39.611 1.838,39.609 C0.757,39.540 -0.068,38.604 0.001,37.520 C0.696,26.346 2.953,24.435 6.880,22.020 C6.977,21.960 7.077,21.917 7.178,21.876 C7.745,21.499 8.380,21.224 9.028,21.068 C9.033,21.067 9.036,21.067 9.040,21.067 L10.263,22.352 L11.523,21.079 C12.168,21.241 12.801,21.518 13.366,21.894 C13.454,21.931 13.543,21.969 13.628,22.021 C17.554,24.435 19.809,26.347 20.503,37.521 C20.571,38.604 19.748,39.540 18.664,39.609 ZM10.275,22.541 L10.250,22.541 L9.032,30.716 L10.250,32.389 L10.275,32.389 L11.494,30.716 L10.275,22.541 ZM10.264,20.789 C7.469,20.789 5.204,18.517 5.205,15.715 C5.205,12.914 7.469,10.645 10.264,10.645 C13.057,10.645 15.322,12.914 15.322,15.715 C15.322,18.517 13.056,20.789 10.264,20.789 Z"/>
  </symbol>

  <symbol id="partners3" viewBox="0 0 40 65">
    <path d="M38.958,40.344 L34.134,40.344 C34.130,40.351 34.129,40.358 34.127,40.365 C33.693,41.476 32.618,42.159 31.479,42.159 C31.140,42.159 30.796,42.099 30.459,41.972 C29.676,41.673 29.109,41.065 28.834,40.345 L26.876,40.345 L26.875,61.720 C26.875,63.532 25.390,65.000 23.556,65.000 C21.724,65.000 20.239,63.532 20.239,61.720 L20.239,40.345 L19.766,40.345 L19.766,61.721 C19.766,63.533 18.280,65.001 16.447,65.001 C14.614,65.001 13.128,63.533 13.128,61.722 L13.127,40.346 L11.314,40.346 C11.038,41.066 10.472,41.674 9.688,41.973 C9.351,42.100 9.007,42.160 8.667,42.160 C7.530,42.161 6.455,41.478 6.021,40.366 C6.019,40.359 6.018,40.352 6.013,40.345 L1.044,40.345 C0.471,40.345 0.004,39.884 0.004,39.318 L0.004,20.877 C0.004,20.310 0.471,19.848 1.044,19.848 L12.718,19.848 C13.249,17.196 15.672,15.297 18.236,14.692 C18.242,14.690 18.248,14.690 18.253,14.688 L20.000,16.501 L21.801,14.707 C24.351,15.324 26.756,17.210 27.283,19.848 L38.957,19.848 C39.531,19.848 39.996,20.309 39.997,20.876 L39.997,39.317 C39.997,39.883 39.532,40.344 38.958,40.344 ZM37.916,21.904 L2.086,21.904 L2.086,38.288 L5.681,38.288 C5.751,37.550 6.037,36.994 6.346,36.609 C7.024,35.764 8.113,35.327 9.190,35.477 C10.623,35.672 11.643,36.895 11.625,38.288 L28.522,38.288 C28.504,36.895 29.524,35.671 30.956,35.477 C32.032,35.332 33.122,35.764 33.801,36.609 C34.109,36.994 34.394,37.550 34.464,38.288 L37.915,38.288 L37.916,38.288 L37.916,21.904 ZM24.667,31.414 L20.035,36.046 C19.956,36.125 19.849,36.169 19.737,36.169 C19.625,36.169 19.518,36.125 19.438,36.046 L14.806,31.414 C14.120,30.816 13.684,29.936 13.684,28.954 C13.684,27.149 15.147,25.685 16.953,25.685 C18.132,25.685 19.162,26.311 19.737,27.247 C20.312,26.311 21.342,25.685 22.520,25.685 C24.326,25.685 25.789,27.149 25.789,28.954 C25.789,29.936 25.354,30.816 24.667,31.414 ZM20.000,14.294 C16.005,14.294 12.766,11.094 12.766,7.147 C12.766,3.199 16.005,-0.001 20.000,-0.001 C23.996,-0.001 27.235,3.199 27.235,7.147 C27.235,11.094 23.996,14.294 20.000,14.294 Z"/>
  </symbol>

  <symbol id="partners4" viewBox="0 0 66 65">
    <path d="M65.858,35.775 C65.749,37.143 64.594,38.183 63.231,38.183 C63.161,38.183 63.093,38.181 63.022,38.175 C61.570,38.062 60.485,36.806 60.598,35.368 C60.920,31.304 60.670,28.354 60.056,26.145 L60.056,34.536 C60.056,35.465 59.819,36.314 59.410,37.062 L59.409,61.916 C59.409,63.621 58.014,65.001 56.293,65.001 C56.293,65.001 56.293,65.001 56.292,65.001 C54.571,65.001 53.176,63.620 53.176,61.916 L53.177,40.468 C53.152,40.468 53.128,40.471 53.104,40.471 C52.979,40.471 52.856,40.461 52.733,40.455 L52.734,61.916 C52.735,63.621 51.339,65.001 49.617,65.001 C47.896,65.001 46.501,63.620 46.500,61.917 L46.499,36.910 C46.499,36.770 46.511,36.632 46.530,36.496 C46.289,35.893 46.151,35.238 46.151,34.536 L46.151,24.074 C44.357,25.348 42.381,26.260 39.992,26.260 C38.458,26.260 36.755,25.885 34.822,24.991 C33.581,24.416 33.004,23.006 33.454,21.753 L22.063,13.840 L22.613,13.063 L33.936,20.929 C34.686,20.058 35.957,19.749 37.055,20.258 C40.727,21.959 42.168,20.878 46.164,17.205 C46.810,16.610 47.479,15.996 48.212,15.356 C48.427,15.167 48.669,15.032 48.919,14.926 C49.691,14.413 50.559,14.037 51.445,13.826 C51.451,13.826 51.456,13.825 51.462,13.823 L53.103,15.528 L54.796,13.841 C55.662,14.052 56.510,14.420 57.267,14.919 C57.387,14.969 57.507,15.019 57.622,15.089 C62.512,18.060 66.895,22.622 65.858,35.775 ZM53.119,15.778 L53.088,15.778 L51.450,26.621 L53.088,28.841 L53.119,28.841 L54.758,26.621 L53.119,15.778 ZM53.103,13.451 C49.352,13.451 46.310,10.440 46.310,6.725 C46.310,3.011 49.352,-0.001 53.103,-0.001 C56.855,-0.001 59.895,3.011 59.895,6.725 C59.895,10.440 56.855,13.451 53.103,13.451 ZM12.350,8.462 L12.350,23.893 L7.315,23.893 L7.315,8.462 L12.350,8.462 ZM19.062,12.616 L19.062,23.893 L14.028,23.893 L14.028,12.616 L19.062,12.616 ZM25.775,7.157 L25.775,14.394 L22.485,12.109 L21.108,14.052 L25.775,17.293 L25.775,23.893 L20.740,23.893 L20.740,7.157 L25.775,7.157 ZM30.209,4.248 C30.209,3.726 29.780,3.298 29.251,3.298 L3.838,3.298 C3.310,3.298 2.880,3.726 2.880,4.248 L2.880,26.802 C2.880,27.324 3.310,27.751 3.838,27.751 L29.251,27.751 C29.780,27.751 30.209,27.324 30.209,26.802 L30.209,20.374 L32.680,22.090 C32.538,22.877 32.697,23.663 33.086,24.327 L33.086,26.802 C33.086,28.895 31.366,30.599 29.251,30.599 L17.812,30.599 L26.308,50.482 C26.661,51.307 26.271,52.259 25.438,52.608 C24.604,52.959 23.643,52.571 23.291,51.747 L15.924,34.508 L8.557,51.747 C8.293,52.365 7.687,52.737 7.048,52.737 C6.835,52.737 6.619,52.695 6.410,52.608 C5.577,52.259 5.187,51.307 5.540,50.482 L14.036,30.599 L3.838,30.599 C1.723,30.599 0.002,28.895 0.002,26.802 L0.002,4.248 C0.002,2.154 1.723,0.450 3.838,0.450 L29.251,0.450 C31.366,0.450 33.086,2.154 33.086,4.248 L33.086,19.472 L30.209,17.474 L30.209,4.248 Z"/>
  </symbol>

  <symbol id="next" viewBox="0 0 45 30">
    <path d="M30.286,0.010 L29.116,1.201 L41.836,14.159 L-0.006,14.159 L-0.006,15.845 L41.838,15.845 L29.116,28.801 L30.286,29.994 L45.004,15.003 L30.286,0.010 Z"/>
  </symbol>

  <symbol id="prev" viewBox="0 0 45 30">
    <path d="M14.714,29.990 L15.884,28.799 L3.164,15.841 L45.006,15.841 L45.006,14.155 L3.162,14.155 L15.884,1.199 L14.714,0.006 L-0.004,14.997 L14.714,29.990 Z"/>
  </symbol>

  <symbol id="refresh" viewBox="0 0 17 22">
    <path d="M8.500,3.000 L8.500,0.000 L4.250,4.000 L8.500,8.000 L8.500,5.000 C12.006,5.000 14.875,7.700 14.875,11.000 C14.875,12.000 14.556,13.000 14.131,13.800 L15.725,15.300 C16.469,14.000 17.000,12.600 17.000,11.000 C17.000,6.600 13.175,3.000 8.500,3.000 ZM8.500,17.000 C4.994,17.000 2.125,14.300 2.125,11.000 C2.125,10.000 2.444,9.000 2.869,8.200 L1.275,6.700 C0.531,8.000 -0.000,9.400 -0.000,11.000 C-0.000,15.400 3.825,19.000 8.500,19.000 L8.500,22.000 L12.750,18.000 L8.500,14.000 L8.500,17.000 Z"/>
  </symbol>

  <symbol id="wallet" viewBox="0 0 20 17">
    <path d="M19.543,10.134 L11.002,10.134 C10.751,10.134 10.547,9.935 10.547,9.694 L10.547,6.036 C10.547,5.791 10.751,5.595 11.002,5.595 L19.543,5.595 C19.795,5.595 19.998,5.791 19.998,6.036 L19.998,9.694 C19.998,9.937 19.795,10.134 19.543,10.134 ZM12.775,6.440 C12.049,6.440 11.460,7.077 11.460,7.864 C11.460,8.649 12.048,9.288 12.775,9.288 C13.500,9.288 14.089,8.651 14.089,7.864 C14.089,7.078 13.501,6.440 12.775,6.440 ZM9.606,5.270 L9.606,10.457 C9.606,10.800 9.863,11.078 10.182,11.077 L18.657,11.077 L18.657,15.447 C18.657,16.308 18.022,17.010 17.242,17.010 L1.406,17.010 C0.629,17.010 -0.008,16.306 -0.008,15.447 L-0.008,1.571 C-0.008,0.713 0.628,0.010 1.406,0.010 L17.242,0.010 C18.020,0.010 18.657,0.714 18.657,1.571 L18.657,4.650 L10.182,4.650 C9.863,4.650 9.606,4.929 9.606,5.270 Z"/>
  </symbol>

  <symbol id="settings" viewBox="0 0 20 20">
    <path d="M17.485,11.055 C17.485,10.754 17.587,10.452 17.587,10.050 C17.587,9.648 17.587,9.347 17.485,9.045 L19.627,7.337 C19.831,7.136 19.831,6.935 19.729,6.734 L17.689,3.216 C17.587,3.116 17.383,3.015 17.076,3.116 L14.526,4.121 C14.016,3.719 13.404,3.417 12.792,3.116 L12.384,0.502 C12.486,0.201 12.180,0.000 11.976,0.000 L7.895,0.000 C7.691,0.000 7.385,0.201 7.385,0.402 L6.977,3.116 C6.365,3.317 5.855,3.719 5.242,4.121 L2.794,3.116 C2.488,3.015 2.284,3.116 2.080,3.317 L0.039,6.834 C-0.063,6.935 0.039,7.236 0.244,7.437 L2.386,9.045 C2.386,9.347 2.284,9.648 2.284,10.050 C2.284,10.452 2.284,10.754 2.386,11.055 L0.244,12.764 C0.039,12.965 0.039,13.166 0.141,13.367 L2.182,16.884 C2.284,16.985 2.488,17.086 2.794,16.985 L5.344,15.980 C5.855,16.382 6.466,16.683 7.079,16.985 L7.487,19.598 C7.487,19.799 7.691,20.000 7.997,20.000 L12.078,20.000 C12.282,20.000 12.588,19.799 12.588,19.598 L12.996,16.985 C13.608,16.683 14.220,16.382 14.730,15.980 L17.281,16.985 C17.485,17.086 17.791,16.985 17.893,16.784 L19.933,13.266 C20.035,13.065 20.035,12.764 19.831,12.663 L17.485,11.055 ZM9.935,13.568 C7.997,13.568 6.365,11.960 6.365,10.050 C6.365,8.141 7.997,6.533 9.935,6.533 C11.874,6.533 13.506,8.141 13.506,10.050 C13.506,11.960 11.874,13.568 9.935,13.568 Z"/>
  </symbol>

  <symbol id="off" viewBox="0 0 19 20">
    <path d="M16.217,17.243 C14.423,19.021 12.037,20.000 9.500,20.000 C6.963,20.000 4.577,19.021 2.783,17.243 C0.988,15.465 0.000,13.101 0.000,10.586 C0.000,8.772 0.522,7.011 1.511,5.492 C2.295,4.287 3.365,3.259 4.606,2.519 C4.838,2.381 5.127,2.377 5.363,2.509 C5.598,2.641 5.744,2.889 5.744,3.157 L5.744,4.697 C5.744,4.929 5.635,5.148 5.448,5.289 C3.784,6.545 2.790,8.526 2.790,10.586 C2.790,14.253 5.800,17.235 9.500,17.235 C13.200,17.235 16.210,14.253 16.210,10.586 C16.210,8.526 15.216,6.545 13.552,5.289 C13.365,5.148 13.256,4.929 13.256,4.697 L13.256,3.157 C13.256,2.889 13.402,2.641 13.637,2.509 C13.873,2.377 14.162,2.381 14.394,2.519 C15.635,3.259 16.705,4.287 17.489,5.492 C18.478,7.011 19.000,8.772 19.000,10.586 C19.000,13.101 18.012,15.465 16.217,17.243 ZM10.378,11.433 L8.622,11.433 C8.234,11.433 7.918,11.120 7.918,10.735 L7.918,0.698 C7.918,0.313 8.234,0.000 8.622,0.000 L10.378,0.000 C10.766,0.000 11.082,0.313 11.082,0.698 L11.082,10.735 C11.082,11.120 10.766,11.433 10.378,11.433 Z"/>
  </symbol>

  <symbol id="close" viewBox="0 0 8 8">
    <path d="M8.000,0.800 L7.200,0.000 L4.000,3.200 L0.800,0.000 L0.000,0.800 L3.200,4.000 L0.000,7.200 L0.800,8.000 L4.000,4.800 L7.200,8.000 L8.000,7.200 L4.800,4.000 L8.000,0.800 Z"/>
  </symbol>

</svg>